<svg width="378" height="378" viewBox="0 0 378 378" fill="none" xmlns="http://www.w3.org/2000/svg">
<path d="M219.628 81.0022L280.614 30.3203L267.215 108.476L266.737 111.263L269.524 110.785L347.68 97.3862L296.998 158.372L295.191 160.546L297.843 161.526L372.228 189L297.843 216.474L295.191 217.454L296.998 219.628L347.68 280.614L269.524 267.215L266.737 266.737L267.215 269.524L280.614 347.68L219.628 296.998L217.454 295.191L216.474 297.843L189 372.228L161.526 297.843L160.546 295.191L158.372 296.998L97.3862 347.68L110.785 269.524L111.263 266.737L108.476 267.215L30.3203 280.614L81.0022 219.628L82.8095 217.454L80.157 216.474L5.77244 189L80.157 161.526L82.8095 160.546L81.0022 158.372L30.3203 97.3862L108.476 110.785L111.263 111.263L110.785 108.476L97.3862 30.3203L158.372 81.0022L160.546 82.8095L161.526 80.157L189 5.77244L216.474 80.157L217.454 82.8095L219.628 81.0022Z" fill="#BBFF88" stroke="#0000FF" stroke-width="4"/>
</svg>
