<?xml version="1.0" standalone="no"?>
<!DOCTYPE svg PUBLIC "-//W3C//DTD SVG 20010904//EN"
 "http://www.w3.org/TR/2001/REC-SVG-20010904/DTD/svg10.dtd">
<svg version="1.0" xmlns="http://www.w3.org/2000/svg"
 width="240.000000pt" height="240.000000pt" viewBox="0 0 240.000000 240.000000"
 preserveAspectRatio="xMidYMid meet">
<metadata>
Created by potrace 1.14, written by Peter Selinger 2001-2017
</metadata>
<g transform="translate(0.000000,240.000000) scale(0.100000,-0.100000)"
fill="#000000" stroke="none">
<path d="M1124 2350 c-119 -28 -231 -138 -251 -249 -7 -42 -7 -133 1 -198 l7
-62 -81 29 c-202 71 -327 51 -438 -69 -78 -85 -101 -243 -51 -352 15 -30 44
-73 65 -95 65 -66 105 -82 301 -119 10 -2 19 -4 20 -4 2 -1 -6 -11 -17 -23
-141 -164 -174 -233 -168 -348 6 -91 30 -149 91 -212 62 -65 179 -112 253
-102 11 2 38 6 61 9 47 7 134 61 173 107 l25 30 0 -245 0 -245 -26 47 c-38 66
-112 136 -178 168 -31 15 -58 28 -61 29 -3 0 -21 4 -40 9 -19 4 -88 9 -152 10
-133 1 -134 0 -129 -80 9 -151 122 -291 266 -330 42 -12 668 -15 734 -4 175
29 316 175 344 357 9 54 -4 59 -163 56 -159 -2 -174 -5 -248 -41 -61 -30 -112
-78 -148 -139 -14 -24 -27 -44 -28 -44 -1 0 -2 97 -2 215 0 118 0 215 1 215 1
0 20 -17 42 -38 75 -72 220 -104 319 -72 171 56 267 235 219 407 -16 57 -55
118 -132 208 -38 44 -41 60 -13 62 11 1 58 9 103 18 135 27 212 84 265 195 22
45 27 69 27 135 0 68 -5 89 -29 138 -56 115 -170 189 -290 189 -70 -1 -79 -2
-166 -32 -36 -12 -69 -23 -75 -24 -5 -1 -16 -5 -22 -9 -12 -8 -19 12 -13 38 1
6 3 48 5 95 4 127 -22 201 -97 278 -43 45 -91 74 -143 87 -45 11 -126 14 -161
5z"/>
</g>
</svg>
